# xmcd
#
# Track frame offsets: 
#        150
#        10132
#        19805
#        29207
#        41427
#        55770
#        66752
#        78492
#
# Disc length: 1169 seconds
#
# Revision: 1
# Processed by: cddbd v1.5.1PL0 Copyright (c) Steve Scherf et al.
# Submitted via: ExactAudioCopy v0.95a5
#
DISCID=61048f08
DTITLE=Charlie Rich - Lonely Weekends [Sun]
DYEAR=1960
DGENRE=Country
TTITLE0=Lonely Weekends
TTITLE1=Whirlwind
TTITLE2=Philadelphia Baby
TTITLE3=There Won't Be Anymore
TTITLE4=Sittin' and Thinkin'
TTITLE5=Unchained Melody
TTITLE6=Break Up
TTITLE7=Jeannie With The Light Brown Hair
EXTD=
EXTT0=
EXTT1=
EXTT2=
EXTT3=
EXTT4=
EXTT5=
EXTT6=
EXTT7=
PLAYORDER=
